<?xml version="1.0" standalone="no"?>
<!DOCTYPE svg PUBLIC "-//W3C//DTD SVG 20010904//EN"
 "http://www.w3.org/TR/2001/REC-SVG-20010904/DTD/svg10.dtd">
<svg version="1.0" xmlns="http://www.w3.org/2000/svg"
 width="820.000000pt" height="820.000000pt" viewBox="0 0 820.000000 820.000000"
 preserveAspectRatio="xMidYMid meet">
<metadata>
Created by potrace 1.14, written by Peter Selinger 2001-2017
</metadata>
<g transform="translate(0.000000,820.000000) scale(0.100000,-0.100000)"
fill="#000000" stroke="none">
<path d="M4065 6524 c-231 -23 -466 -74 -640 -139 -826 -310 -1405 -1037
-1520 -1910 -36 -272 -14 -622 55 -888 108 -420 344 -820 657 -1117 106 -100
276 -232 387 -300 72 -44 254 -137 318 -164 27 -10 39 -23 44 -43 32 -132 124
-234 249 -277 104 -36 917 -45 1075 -12 164 34 256 127 307 307 27 97 24 352
-6 523 -57 324 -145 528 -387 894 -63 95 -114 176 -114 180 1 4 46 29 102 55
88 43 113 61 193 140 99 99 141 168 170 282 19 74 19 193 1 263 -11 41 -12 60
-3 90 7 22 12 107 11 207 0 138 -4 189 -22 275 -27 124 -90 317 -135 414 l-32
69 -83 -84 c-137 -140 -241 -300 -274 -422 l-12 -48 -71 8 c-91 10 -255 10
-326 0 l-57 -8 -6 34 c-8 45 -76 183 -124 255 -51 74 -181 223 -216 245 l-26
18 -31 -68 c-44 -98 -104 -282 -131 -403 -23 -107 -24 -126 -17 -527 0 -27 -3
-93 -6 -147 -9 -118 3 -181 50 -282 63 -130 220 -273 369 -334 37 -15 55 -27
52 -36 -3 -7 -45 -73 -94 -146 -239 -359 -338 -577 -393 -865 -13 -68 -28
-123 -34 -123 -15 0 -167 92 -258 157 -98 70 -287 250 -370 353 -430 532 -549
1268 -310 1910 122 327 334 622 602 837 228 182 475 306 755 378 272 70 635
74 913 10 122 -28 286 -86 408 -145 220 -106 359 -210 636 -477 122 -118 164
-137 251 -113 109 31 167 160 119 265 -20 45 -156 201 -247 284 -173 159 -359
284 -579 392 -225 110 -438 176 -685 214 -101 15 -431 27 -515 19z"/>
</g>
</svg>
